<svg width="64" height="11" fill="none" xmlns="http://www.w3.org/2000/svg"><path d="M3.807 10.588c-.393 0-.59-.108-.59-.325V1.335H.384c-.098 0-.172-.034-.221-.103-.05-.07-.074-.183-.074-.34V.655c0-.158.024-.27.074-.34C.212.246.286.212.384.212h6.92c.108 0 .182.034.221.103.05.07.074.182.074.34v.237c0 .157-.025.27-.074.34-.04.069-.113.103-.221.103H4.515v8.928c0 .217-.196.325-.59.325h-.118Zm5.973-.03c-.157 0-.27-.034-.34-.103-.068-.069-.103-.182-.103-.34V.655c0-.158.035-.27.104-.34.069-.069.182-.103.34-.103h5.149c.108 0 .181.034.22.103.05.07.075.182.075.34v.237c0 .157-.025.27-.074.34-.04.069-.113.103-.221.103h-4.294v3.37h3.85c.109 0 .183.035.222.104.05.069.074.182.074.34v.236c0 .158-.025.271-.074.34-.04.069-.113.104-.221.104h-3.851v3.606h4.308c.108 0 .182.035.221.104.05.069.074.182.074.34v.236c0 .158-.024.271-.074.34-.039.069-.113.103-.22.103H9.78Zm9.766.09c-.59 0-1.136-.07-1.638-.208-.501-.138-.88-.305-1.136-.502-.187-.138-.28-.262-.28-.37 0-.118.064-.28.192-.488.137-.207.246-.31.324-.31.04 0 .143.05.31.148.305.167.63.31.974.428.354.119.772.178 1.254.178.57 0 1.033-.158 1.387-.473.364-.325.546-.75.546-1.271 0-.365-.098-.666-.295-.902a2.063 2.063 0 0 0-.723-.577 11.693 11.693 0 0 0-1.21-.532 11.743 11.743 0 0 1-1.357-.62 2.446 2.446 0 0 1-.856-.828c-.236-.375-.354-.862-.354-1.463 0-.533.133-1.006.398-1.42a2.703 2.703 0 0 1 1.151-.96C18.735.24 19.31.123 19.959.123c.335 0 .709.05 1.122.148.413.089.732.212.959.37.196.118.295.246.295.384 0 .108-.064.266-.192.473-.118.207-.212.31-.28.31a.565.565 0 0 1-.222-.074 3.108 3.108 0 0 1-.177-.103 3.28 3.28 0 0 0-1.534-.385c-.57 0-1.033.148-1.387.444-.345.295-.517.704-.517 1.227 0 .335.084.606.251.813.177.207.374.364.59.473.227.098.615.256 1.166.473.59.226 1.072.448 1.446.665.374.207.689.512.944.916.266.394.399.902.399 1.523 0 .886-.295 1.586-.886 2.099-.59.512-1.387.768-2.39.768Zm7.79-.06c-.393 0-.59-.108-.59-.325V1.335h-2.832c-.099 0-.173-.034-.222-.103-.05-.07-.074-.183-.074-.34V.655c0-.158.025-.27.074-.34.05-.069.123-.103.221-.103h6.92c.109 0 .182.034.222.103.049.07.073.182.073.34v.237c0 .157-.024.27-.073.34-.04.069-.113.103-.222.103h-2.788v8.928c0 .217-.197.325-.59.325h-.118Zm8.098 0c-.393 0-.59-.108-.59-.325V1.335h-2.833c-.098 0-.172-.034-.221-.103-.05-.07-.074-.183-.074-.34V.655c0-.158.025-.27.074-.34.05-.069.123-.103.221-.103h6.92c.108 0 .182.034.221.103.05.07.074.182.074.34v.237c0 .157-.024.27-.074.34-.039.069-.113.103-.221.103h-2.789v8.928c0 .217-.196.325-.59.325h-.118Zm4.305 0c-.422 0-.634-.084-.634-.251a.71.71 0 0 1 .044-.207L42.646.419c.06-.158.256-.237.59-.237h.428c.354 0 .551.079.59.237l3.497 9.726c.03.069.044.133.044.192 0 .167-.211.251-.634.251h-.118c-.344 0-.54-.079-.59-.236l-.87-2.425h-4.339l-.84 2.425c-.05.157-.246.236-.59.236h-.075Zm5.445-3.784-1.55-4.405a7.483 7.483 0 0 1-.176-.857h-.03c-.079.394-.152.68-.221.857l-1.55 4.405h3.527Zm6.393 3.843c-.59 0-1.136-.069-1.638-.207-.502-.138-.88-.305-1.136-.502-.187-.138-.28-.262-.28-.37 0-.118.064-.28.191-.488.138-.207.246-.31.325-.31.04 0 .143.05.31.148.305.167.63.31.974.428.354.119.772.178 1.254.178.57 0 1.033-.158 1.387-.473.364-.325.546-.75.546-1.271 0-.365-.099-.666-.295-.902a2.065 2.065 0 0 0-.723-.577 11.683 11.683 0 0 0-1.21-.532 11.765 11.765 0 0 1-1.358-.62 2.447 2.447 0 0 1-.855-.828c-.236-.375-.355-.862-.355-1.463 0-.533.133-1.006.399-1.42a2.703 2.703 0 0 1 1.15-.96C50.766.24 51.342.123 51.99.123c.334 0 .708.05 1.121.148.414.089.733.212.96.37.196.118.294.246.294.384 0 .108-.064.266-.191.473-.118.207-.212.31-.28.31a.565.565 0 0 1-.222-.074 3.108 3.108 0 0 1-.177-.103 3.28 3.28 0 0 0-1.534-.385c-.571 0-1.033.148-1.387.444-.345.295-.517.704-.517 1.227 0 .335.084.606.251.813.177.207.374.364.59.473.226.098.615.256 1.166.473.59.226 1.072.448 1.446.665.373.207.688.512.944.916.266.394.398.902.398 1.523 0 .886-.295 1.586-.885 2.099-.59.512-1.387.768-2.39.768Zm5.798-.059c-.393 0-.59-.108-.59-.325V.507c0-.216.197-.325.59-.325h.118c.394 0 .59.109.59.325V5.03h.06l3.63-4.64c.107-.139.373-.208.796-.208h.148c.167 0 .295.02.383.06.089.029.133.073.133.132 0 .089-.05.188-.147.296l-3.69 4.612 4.471 4.863c.089.098.133.177.133.236 0 .079-.049.133-.147.163-.099.03-.266.044-.502.044h-.177c-.216 0-.389-.01-.516-.03a.491.491 0 0 1-.296-.162l-4.22-4.76h-.058v4.627c0 .217-.197.325-.59.325h-.119Z" fill="#000" fill-opacity=".87"/></svg>